<svg xmlns="http://www.w3.org/2000/svg" viewBox="0 0 64 64" width="64" height="64">
  <defs>
    <linearGradient id="oc_cloud" x1="0%" y1="0%" x2="0%" y2="100%">
      <stop offset="0%" stop-color="#c7d4e6"/>
      <stop offset="100%" stop-color="#6e88a8"/>
    </linearGradient>
    <linearGradient id="oc_cloud2" x1="0%" y1="0%" x2="0%" y2="100%">
      <stop offset="0%" stop-color="#e3ecf7"/>
      <stop offset="100%" stop-color="#97aecb"/>
    </linearGradient>
  </defs>
  <path d="M 10 38 Q 4 38 4 31 Q 4 24 12 23 Q 14 15 23 15 Q 32 15 34 22 Q 43 22 44 30 Q 50 30 50 37 Q 50 44 44 44 L 12 44 Q 10 44 10 38 Z"
        fill="url(#oc_cloud2)" stroke="#55708e" stroke-width="1.1" stroke-linejoin="round" opacity="0.85"/>
  <path d="M 20 46 Q 12 46 12 39 Q 12 31 21 30 Q 24 22 34 22 Q 45 22 47 31 Q 56 31 56 39 Q 56 46 48 46 Z"
        fill="url(#oc_cloud)" stroke="#415e7c" stroke-width="1.3" stroke-linejoin="round"/>
</svg>
