<svg xmlns="http://www.w3.org/2000/svg" viewBox="0 0 64 64" width="64" height="64">
  <defs>
    <linearGradient id="sl_cloud" x1="0%" y1="0%" x2="0%" y2="100%">
      <stop offset="0%" stop-color="#d5e3f5"/>
      <stop offset="100%" stop-color="#8aa3c4"/>
    </linearGradient>
  </defs>
  <path d="M 16 36 Q 9 36 9 29 Q 9 22 17 21 Q 19 13 28 13 Q 38 13 40 20 Q 47 20 48 28 Q 54 28 54 35 Q 54 42 48 42 L 18 42 Q 16 42 16 36 Z"
        fill="url(#sl_cloud)" stroke="#53708f" stroke-width="1.3" stroke-linejoin="round"/>
  <g fill="#6ea8ff">
    <path d="M 22 47 q -2.2 5 0 7 q 2.2 0 0 -7 Z"/>
    <path d="M 42 47 q -2.2 5 0 7 q 2.2 0 0 -7 Z"/>
  </g>
  <g stroke="#eaf4ff" stroke-width="1.7" stroke-linecap="round">
    <g transform="translate(32 54)">
      <line x1="-4.5" y1="0" x2="4.5" y2="0"/>
      <line x1="-3.2" y1="-3.2" x2="3.2" y2="3.2"/>
      <line x1="-3.2" y1="3.2" x2="3.2" y2="-3.2"/>
    </g>
  </g>
</svg>
